<svg xmlns="http://www.w3.org/2000/svg" viewBox="0 0 150 220" width="150" height="220">
  <defs>
    <linearGradient id="bg22" x1="0" y1="0" x2="0" y2="1">
      <stop offset="0%" stop-color="#fefcf6"/>
      <stop offset="100%" stop-color="#f5efe0"/>
    </linearGradient>
  </defs>
  <rect width="150" height="220" fill="url(#bg22)"/>
  <circle cx="125.0" cy="100.0" r="6.5" fill="#fbbf24" stroke="#1a1a1a" stroke-width="1.2"/><ellipse cx="123.0" cy="98.0" rx="1.9" ry="1.3" fill="white" opacity="0.55"/><circle cx="121.98463103929542" cy="122.23130931616846" r="6.5" fill="#fef3c7" stroke="#1a1a1a" stroke-width="1.2"/><ellipse cx="120.0" cy="120.3" rx="1.9" ry="1.3" fill="white" opacity="0.55"/><circle cx="113.3022221559489" cy="141.78119462962505" r="6.5" fill="#fbbf24" stroke="#1a1a1a" stroke-width="1.2"/><ellipse cx="111.4" cy="139.8" rx="1.9" ry="1.3" fill="white" opacity="0.55"/><circle cx="100.0" cy="156.2916512459885" r="6.5" fill="#fef3c7" stroke="#1a1a1a" stroke-width="1.2"/><ellipse cx="98.0" cy="154.3" rx="1.9" ry="1.3" fill="white" opacity="0.55"/><circle cx="83.68240888334653" cy="164.01250394579353" r="6.5" fill="#fbbf24" stroke="#1a1a1a" stroke-width="1.2"/><ellipse cx="81.7" cy="162.1" rx="1.9" ry="1.3" fill="white" opacity="0.55"/><circle cx="66.31759111665349" cy="164.01250394579353" r="6.5" fill="#fef3c7" stroke="#1a1a1a" stroke-width="1.2"/><ellipse cx="64.4" cy="162.1" rx="1.9" ry="1.3" fill="white" opacity="0.55"/><circle cx="50.000000000000014" cy="156.29165124598853" r="6.5" fill="#fbbf24" stroke="#1a1a1a" stroke-width="1.2"/><ellipse cx="48.1" cy="154.3" rx="1.9" ry="1.3" fill="white" opacity="0.55"/><circle cx="36.6977778440511" cy="141.78119462962508" r="6.5" fill="#fef3c7" stroke="#1a1a1a" stroke-width="1.2"/><ellipse cx="34.7" cy="139.8" rx="1.9" ry="1.3" fill="white" opacity="0.55"/><circle cx="28.015368960704585" cy="122.23130931616848" r="6.5" fill="#fbbf24" stroke="#1a1a1a" stroke-width="1.2"/><ellipse cx="26.1" cy="120.3" rx="1.9" ry="1.3" fill="white" opacity="0.55"/><circle cx="25.0" cy="100.00000000000001" r="6.5" fill="#fef3c7" stroke="#1a1a1a" stroke-width="1.2"/><ellipse cx="23.1" cy="98.1" rx="1.9" ry="1.3" fill="white" opacity="0.55"/><circle cx="28.015368960704578" cy="77.76869068383154" r="6.5" fill="#fbbf24" stroke="#1a1a1a" stroke-width="1.2"/><ellipse cx="26.1" cy="75.8" rx="1.9" ry="1.3" fill="white" opacity="0.55"/><circle cx="36.69777784405108" cy="58.21880537037497" r="6.5" fill="#fef3c7" stroke="#1a1a1a" stroke-width="1.2"/><ellipse cx="34.7" cy="56.3" rx="1.9" ry="1.3" fill="white" opacity="0.55"/><circle cx="49.99999999999998" cy="43.7083487540115" r="6.5" fill="#fbbf24" stroke="#1a1a1a" stroke-width="1.2"/><ellipse cx="48.0" cy="41.8" rx="1.9" ry="1.3" fill="white" opacity="0.55"/><circle cx="66.31759111665349" cy="35.987496054206474" r="6.5" fill="#fef3c7" stroke="#1a1a1a" stroke-width="1.2"/><ellipse cx="64.4" cy="34.0" rx="1.9" ry="1.3" fill="white" opacity="0.55"/><circle cx="83.6824088833465" cy="35.987496054206474" r="6.5" fill="#fbbf24" stroke="#1a1a1a" stroke-width="1.2"/><ellipse cx="81.7" cy="34.0" rx="1.9" ry="1.3" fill="white" opacity="0.55"/><circle cx="99.99999999999997" cy="43.70834875401146" r="6.5" fill="#fef3c7" stroke="#1a1a1a" stroke-width="1.2"/><ellipse cx="98.0" cy="41.8" rx="1.9" ry="1.3" fill="white" opacity="0.55"/><circle cx="113.3022221559489" cy="58.21880537037493" r="6.5" fill="#fbbf24" stroke="#1a1a1a" stroke-width="1.2"/><ellipse cx="111.4" cy="56.3" rx="1.9" ry="1.3" fill="white" opacity="0.55"/><circle cx="121.98463103929542" cy="77.76869068383154" r="6.5" fill="#fef3c7" stroke="#1a1a1a" stroke-width="1.2"/><ellipse cx="120.0" cy="75.8" rx="1.9" ry="1.3" fill="white" opacity="0.55"/>
  
    <line x1="75" y1="165" x2="75" y2="177" stroke="#1a1a1a" stroke-width="1"/>
    <polygon points="75,176 89,190 75,204 61,190" fill="#fbbf24" stroke="#1a1a1a" stroke-width="1.5"/>
    
</svg>