<svg xmlns="http://www.w3.org/2000/svg" viewBox="0 0 150 240" width="150" height="240">
  <defs>
    <linearGradient id="bg1" x1="0" y1="0" x2="0" y2="1">
      <stop offset="0%" stop-color="#fefcf6"/>
      <stop offset="100%" stop-color="#f5efe0"/>
    </linearGradient>
  </defs>
  <rect width="150" height="240" fill="url(#bg1)"/>
  <path d="M 75 56.8 C 48.599999999999994 41.2, 48.599999999999994 23.200000000000003, 65.4 23.200000000000003 C 71.4 23.200000000000003, 75 30.4, 75 35.2 C 75 30.4, 78.6 23.200000000000003, 84.6 23.200000000000003 C 101.4 23.200000000000003, 101.4 41.2, 75 56.8 Z" fill="#dc2626" stroke="#1a1a1a" stroke-width="1.5"/>
  <circle cx="75" cy="70" r="7" fill="#fbbf24" stroke="#1a1a1a" stroke-width="1.2"/><ellipse cx="72.9" cy="67.9" rx="2.1" ry="1.4" fill="white" opacity="0.55"/><circle cx="75" cy="84" r="7" fill="#dc2626" stroke="#1a1a1a" stroke-width="1.2"/><ellipse cx="72.9" cy="81.9" rx="2.1" ry="1.4" fill="white" opacity="0.55"/><circle cx="75" cy="98" r="7" fill="#fbbf24" stroke="#1a1a1a" stroke-width="1.2"/><ellipse cx="72.9" cy="95.9" rx="2.1" ry="1.4" fill="white" opacity="0.55"/>
  
    <rect x="65" y="106" width="20" height="100" rx="3" fill="#2a2a2a" stroke="#1a1a1a" stroke-width="1.5"/>
    <rect x="65" y="115" width="20" height="6" fill="#fbbf24"/>
    <polygon points="65,206 85,206 75,225" fill="#9ca3af" stroke="#1a1a1a" stroke-width="1.5"/>
    
</svg>