<svg xmlns="http://www.w3.org/2000/svg" viewBox="0 0 150 240" width="150" height="240">
  <defs>
    <linearGradient id="bg5" x1="0" y1="0" x2="0" y2="1">
      <stop offset="0%" stop-color="#fefcf6"/>
      <stop offset="100%" stop-color="#f5efe0"/>
    </linearGradient>
  </defs>
  <rect width="150" height="240" fill="url(#bg5)"/>
  <polygon points="75,16 99,40 75,64 51,40" fill="#0891b2" stroke="#1a1a1a" stroke-width="1.5"/>
  <circle cx="75" cy="70" r="7" fill="#cffafe" stroke="#1a1a1a" stroke-width="1.2"/><ellipse cx="72.9" cy="67.9" rx="2.1" ry="1.4" fill="white" opacity="0.55"/><circle cx="75" cy="84" r="7" fill="#0891b2" stroke="#1a1a1a" stroke-width="1.2"/><ellipse cx="72.9" cy="81.9" rx="2.1" ry="1.4" fill="white" opacity="0.55"/><circle cx="75" cy="98" r="7" fill="#cffafe" stroke="#1a1a1a" stroke-width="1.2"/><ellipse cx="72.9" cy="95.9" rx="2.1" ry="1.4" fill="white" opacity="0.55"/>
  
    <rect x="66" y="106" width="18" height="14" rx="2" fill="#f9a8d4" stroke="#1a1a1a" stroke-width="1.5"/>
    <rect x="66" y="120" width="18" height="8" fill="#9ca3af" stroke="#1a1a1a" stroke-width="1.2"/>
    <line x1="68" y1="122" x2="82" y2="122" stroke="#1a1a1a" stroke-width="0.5"/>
    <line x1="68" y1="125" x2="82" y2="125" stroke="#1a1a1a" stroke-width="0.5"/>
    <rect x="66" y="128" width="18" height="78" fill="#fbbf24" stroke="#1a1a1a" stroke-width="1.5"/>
    <polygon points="66,206 84,206 75,222" fill="#e8c896" stroke="#1a1a1a" stroke-width="1.2"/>
    <polygon points="71,215 79,215 75,222" fill="#1a1a1a"/>
    
</svg>