<svg xmlns="http://www.w3.org/2000/svg" viewBox="0 0 150 240" width="150" height="240">
  <defs>
    <linearGradient id="bg17" x1="0" y1="0" x2="0" y2="1">
      <stop offset="0%" stop-color="#fefcf6"/>
      <stop offset="100%" stop-color="#f5efe0"/>
    </linearGradient>
  </defs>
  <rect width="150" height="240" fill="url(#bg17)"/>
  
    <rect x="68" y="20" width="14" height="200" rx="3" fill="#fde68a" stroke="#1a1a1a" stroke-width="1.5"/>
    <line x1="72" y1="25" x2="72" y2="215" stroke="#fbbf24" stroke-width="1" opacity="0.7"/>
    <line x1="78" y1="25" x2="78" y2="215" stroke="#fbbf24" stroke-width="1" opacity="0.7"/>
    
  <circle cx="103.0" cy="110.0" r="6" fill="#7c3aed" stroke="#1a1a1a" stroke-width="1.2"/><ellipse cx="101.2" cy="108.2" rx="1.8" ry="1.2" fill="white" opacity="0.55"/><circle cx="97.65247584249853" cy="117.40609417888516" r="6" fill="#c4b5fd" stroke="#1a1a1a" stroke-width="1.2"/><ellipse cx="95.9" cy="115.6" rx="1.8" ry="1.2" fill="white" opacity="0.55"/><circle cx="83.65247584249853" cy="121.98331210531893" r="6" fill="#7c3aed" stroke="#1a1a1a" stroke-width="1.2"/><ellipse cx="81.9" cy="120.2" rx="1.8" ry="1.2" fill="white" opacity="0.55"/><circle cx="66.34752415750148" cy="121.98331210531893" r="6" fill="#c4b5fd" stroke="#1a1a1a" stroke-width="1.2"/><ellipse cx="64.5" cy="120.2" rx="1.8" ry="1.2" fill="white" opacity="0.55"/><circle cx="52.347524157501475" cy="117.40609417888517" r="6" fill="#7c3aed" stroke="#1a1a1a" stroke-width="1.2"/><ellipse cx="50.5" cy="115.6" rx="1.8" ry="1.2" fill="white" opacity="0.55"/><circle cx="47.0" cy="110.0" r="6" fill="#c4b5fd" stroke="#1a1a1a" stroke-width="1.2"/><ellipse cx="45.2" cy="108.2" rx="1.8" ry="1.2" fill="white" opacity="0.55"/><circle cx="52.34752415750147" cy="102.59390582111484" r="6" fill="#7c3aed" stroke="#1a1a1a" stroke-width="1.2"/><ellipse cx="50.5" cy="100.8" rx="1.8" ry="1.2" fill="white" opacity="0.55"/><circle cx="66.34752415750147" cy="98.01668789468107" r="6" fill="#c4b5fd" stroke="#1a1a1a" stroke-width="1.2"/><ellipse cx="64.5" cy="96.2" rx="1.8" ry="1.2" fill="white" opacity="0.55"/><circle cx="83.65247584249852" cy="98.01668789468107" r="6" fill="#7c3aed" stroke="#1a1a1a" stroke-width="1.2"/><ellipse cx="81.9" cy="96.2" rx="1.8" ry="1.2" fill="white" opacity="0.55"/><circle cx="97.65247584249852" cy="102.59390582111483" r="6" fill="#c4b5fd" stroke="#1a1a1a" stroke-width="1.2"/><ellipse cx="95.9" cy="100.8" rx="1.8" ry="1.2" fill="white" opacity="0.55"/>
  <line x1="103" y1="110" x2="115" y2="155" stroke="#1a1a1a" stroke-width="1"/>
  <polygon points="115,156 129,170 115,184 101,170" fill="#7c3aed" stroke="#1a1a1a" stroke-width="1.5"/>
</svg>